<svg width="11" height="14" viewBox="0 0 11 14" fill="none" xmlns="http://www.w3.org/2000/svg">
<path d="M6.83432 4.89254L6.7365 5.38288L6.83432 4.89254ZM7.63487 5.36995C7.4968 5.6091 7.57873 5.9149 7.81788 6.05297C8.05703 6.19104 8.36282 6.1091 8.50089 5.86995L7.63487 5.36995ZM0.869181 8.6188L0.56168 8.22454C0.430554 8.32681 0.358854 8.48758 0.370385 8.65347C0.381915 8.81936 0.475167 8.96866 0.619181 9.05181L0.869181 8.6188ZM7.79738 12.6188L7.54738 13.0518C7.6914 13.135 7.86733 13.1411 8.01676 13.0681C8.16619 12.9951 8.26957 12.8527 8.29258 12.688L7.79738 12.6188ZM3.98013 6.43048L8.13705 8.83048L8.63705 7.96445L4.48013 5.56445L3.98013 6.43048ZM8.85563 8.57193C9.01802 8.13576 9.15872 7.43855 9.06023 6.72143C8.95953 5.98829 8.60127 5.20673 7.74378 4.71165L7.24378 5.57768C7.77192 5.8826 8.0001 6.35197 8.06953 6.8575C8.14116 7.37904 8.03567 7.90823 7.91848 8.223L8.85563 8.57193ZM7.74378 4.71165C7.47594 4.55701 7.20368 4.45637 6.93214 4.4022L6.7365 5.38288C6.89911 5.41532 7.06876 5.47663 7.24378 5.57768L7.74378 4.71165ZM6.93214 4.4022C6.21572 4.25928 5.55357 4.44761 5.03184 4.72276C4.51204 4.99689 4.09621 5.37471 3.84475 5.6789L4.61551 6.31603C4.793 6.10131 5.10859 5.81283 5.49832 5.60729C5.8861 5.40279 6.31158 5.29811 6.7365 5.38288L6.93214 4.4022ZM7.26733 5.14254L9.1008 1.96688L8.23477 1.46688L6.4013 4.64254L7.26733 5.14254ZM9.1008 1.96688C9.12294 1.92853 9.14695 1.8827 9.16185 1.85493C9.17964 1.8218 9.19404 1.79593 9.20826 1.77307C9.23848 1.72449 9.25276 1.71496 9.2492 1.71751C9.24537 1.72025 9.23728 1.725 9.22627 1.72832C9.21508 1.73169 9.20929 1.73104 9.21291 1.73122C9.22362 1.73174 9.2862 1.73891 9.41662 1.81421L9.91662 0.948182C9.70063 0.82348 9.48212 0.743204 9.26182 0.732416C9.02895 0.721013 8.82817 0.789185 8.66744 0.904148C8.51775 1.01121 8.42071 1.1459 8.35917 1.24482C8.32752 1.2957 8.30093 1.3444 8.28071 1.38209C8.2576 1.42515 8.24659 1.44642 8.23477 1.46688L9.1008 1.96688ZM9.41662 1.81421C9.55943 1.89666 9.61366 1.95251 9.62982 1.97327C9.63743 1.98304 9.62083 1.96182 9.62118 1.92409C9.62139 1.90175 9.62823 1.90679 9.6018 1.96087C9.58943 1.98617 9.57319 2.01558 9.55082 2.05391C9.53535 2.08043 9.4968 2.14499 9.47493 2.18288L10.341 2.68288C10.3757 2.62263 10.4494 2.50391 10.5002 2.40006C10.5553 2.28738 10.6194 2.12588 10.6211 1.93338C10.6253 1.48676 10.3127 1.17684 9.91662 0.948182L9.41662 1.81421ZM9.47493 2.18288L7.63487 5.36995L8.50089 5.86995L10.341 2.68288L9.47493 2.18288ZM3.92263 5.6032L0.56168 8.22454L1.17668 9.01306L4.53763 6.39173L3.92263 5.6032ZM8.29258 12.688L8.88224 8.46664L7.89186 8.32829L7.30219 12.5496L8.29258 12.688ZM0.619181 9.05181L2.35123 10.0518L2.85123 9.18579L1.11918 8.18579L0.619181 9.05181ZM2.35123 10.0518L4.08328 11.0518L4.58328 10.1858L2.85123 9.18579L2.35123 10.0518ZM4.08328 11.0518L5.81533 12.0518L6.31533 11.1858L4.58328 10.1858L4.08328 11.0518ZM5.81533 12.0518L7.54738 13.0518L8.04738 12.1858L6.31533 11.1858L5.81533 12.0518Z" fill="#4F4F4F"/>
</svg>
